<?xml version="1.0" encoding="utf-8"?>
<svg viewBox="168.241 278.405 270 28.19" xmlns="http://www.w3.org/2000/svg">
  <g id="g-2" featurekey="nameFeature-0" transform="matrix(1.006786, 0, 0, 1.006786, 166.50914, 266.081909)" fill="#ffffff">
    <path d="M20.64 17.28 l-7.44 0 c-4.32 0 -5.8 2.76 -5.8 6.88 c0 5.12 4.44 11.04 12.88 11.04 c2.28 0 3.24 1.04 3.24 2.4 c0 1.92 -1.48 2.64 -4.24 2.64 c-7.84 0 -17.56 -5.28 -17.56 -16.4 c0 -6.88 4.28 -11.36 10.04 -11.36 l8.88 0 c1.44 0 2.6 0.76 2.6 2.4 s-1.16 2.4 -2.6 2.4 z M28.042 36.56 l0 -21.48 c0 -1.52 0.84 -2.72 2.52 -2.72 s2.52 1.2 2.52 2.72 l0 20.12 l7.72 0 c1.44 0 2.6 0.76 2.6 2.4 s-1.16 2.4 -2.6 2.4 l-9.28 0 c-2.64 0 -3.48 -1.36 -3.48 -3.44 z M71.084 26.240000000000002 c0 8.96 -6.16 14 -13 14 s-13 -5.04 -13 -14 s6.16 -14 13 -14 s13 5.04 13 14 z M65.40400000000001 26.240000000000002 c0 -5.28 -2.96 -9.44 -7.32 -9.44 s-7.32 4.16 -7.32 9.44 s2.96 9.44 7.32 9.44 s7.32 -4.16 7.32 -9.44 z M75.406 27.560000000000002 l1.16 -12.4 c0.12 -1.36 0.76 -2.8 2.4 -2.8 c1.76 0 2.4 1.36 2.4 2.32 c0 5.28 -1.24 10.48 -1.24 15.76 c0 3.12 2.24 5.24 5.32 5.24 s5.32 -2.12 5.32 -5.24 c0 -5.28 -1.24 -10.48 -1.24 -15.76 c0 -0.96 0.64 -2.32 2.4 -2.32 c1.64 0 2.28 1.44 2.4 2.8 l1.16 12.4 c0.08 1.04 0.08 2.24 0.08 3.36 c0 5.56 -4.4 9.32 -10.12 9.32 s-10.12 -3.76 -10.12 -9.32 c0 -1.12 0 -2.32 0.08 -3.36 z M101.04800000000002 37.04 l0 -21.44 c0 -2 0.96 -3.12 3.48 -3.12 c14.92 0 19.12 9.92 19.12 16.04 c0 6.04 -3.88 11.48 -10.68 11.48 l-8.36 0 c-2.6 0 -3.56 -0.64 -3.56 -2.96 z M106.08800000000002 17.28 l0 17.92 l3.88 0 c5.96 0 8 -2 8 -6.32 c0 -6.48 -5.32 -11.6 -11.88 -11.6 z M147.69000000000003 15.120000000000001 l0 22.24 c0 1.56 -0.8 2.76 -2.52 2.76 s-2.52 -1.2 -2.52 -2.76 l0 -12.68 c-3.28 -0.36 -6.64 -2.64 -9.28 -5.72 l0 18.4 c0 1.56 -0.8 2.76 -2.52 2.76 s-2.52 -1.2 -2.52 -2.76 l0 -22.24 c0.08 -1.56 1.04 -2.76 3.24 -2.76 c3.92 0 4.36 5.88 11.08 7.76 l0 -5 c0 -1.56 0.8 -2.76 2.52 -2.76 s2.52 1.2 2.52 2.76 z M160.05200000000002 28.32 l-1.04 0 c-1.08 2.92 -1.68 6.76 -1.96 9.44 c-0.16 1.48 -1 2.36 -2.44 2.36 c-2.16 0 -2.6 -1.28 -2.6 -3.2 c0 -1.24 0.68 -8.44 5.92 -18.32 c2.28 -4.32 3.56 -6.36 6.36 -6.36 c2.32 0 3.68 2.04 5.96 6.36 c5.24 9.88 6.32 17.08 6.32 18.32 c0 2.08 -1 3.2 -2.4 3.2 c-2 0 -2.48 -1.16 -2.88 -3.32 c-1.04 -5.76 -6.76 -8.48 -11.24 -8.48 z M160.21200000000002 24.32 l0.52 0 c1.96 0 5.4 0.56 8.04 2.72 l0.08 -0.08 c-1.2 -3.44 -2.72 -6.8 -4.68 -9.92 c-1.6 2.4 -2.92 4.8 -3.96 7.28 z M190.89400000000003 17.28 l0 20.12 c0 1.52 -0.8 2.72 -2.52 2.72 s-2.52 -1.2 -2.52 -2.72 l0 -20.12 l-4.64 0 c-1.44 0 -2.6 -0.76 -2.6 -2.4 s1.16 -2.4 2.6 -2.4 l14.32 0 c1.44 0 2.6 0.76 2.6 2.4 s-1.16 2.4 -2.6 2.4 l-4.64 0 z M201.25600000000003 27.560000000000002 l1.16 -12.4 c0.12 -1.36 0.76 -2.8 2.4 -2.8 c1.76 0 2.4 1.36 2.4 2.32 c0 5.28 -1.24 10.48 -1.24 15.76 c0 3.12 2.24 5.24 5.32 5.24 s5.32 -2.12 5.32 -5.24 c0 -5.28 -1.24 -10.48 -1.24 -15.76 c0 -0.96 0.64 -2.32 2.4 -2.32 c1.64 0 2.28 1.44 2.4 2.8 l1.16 12.4 c0.08 1.04 0.08 2.24 0.08 3.36 c0 5.56 -4.4 9.32 -10.12 9.32 s-10.12 -3.76 -10.12 -9.32 c0 -1.12 0 -2.32 0.08 -3.36 z M231.81800000000004 25.16 l0 12.28 c0 1.48 -0.8 2.68 -2.52 2.68 s-2.52 -1.2 -2.52 -2.68 l0 -22.28 c0 -1.48 0.8 -2.68 2.52 -2.68 l8.56 0 c6.08 0 8.4 1.76 8.4 5.68 c0 2.72 -1.52 4.88 -3.64 6.28 c3.44 3.12 5.28 8.24 5.28 12.08 c0 1.84 -0.36 3.6 -2.36 3.6 c-2.2 0 -2.64 -1.48 -2.68 -3.36 c-0.12 -6.04 -3.4 -11.6 -11.04 -11.6 z M231.81800000000004 17.04 l0 3.8 c2.2 0 3.24 0.24 4.24 0.44 l2.44 0.64 c1.08 0 2.72 -1.8 2.72 -3 c0 -1.28 -1 -1.88 -2.72 -1.88 l-6.68 0 z M257.46000000000004 17.04 l0 3.44 l9.6 0 c1.36 0 2.44 0.72 2.44 2.28 s-1.08 2.28 -2.44 2.28 l-9.6 0 l0 10.4 l10 0 c1.36 0 2.44 0.72 2.44 2.28 s-1.08 2.28 -2.44 2.28 l-11.8 0 c-2.64 0 -3.48 -1.36 -3.48 -3.44 l0 -21.36 c0 -1.52 0.84 -2.72 2.2 -2.72 l13.08 0 c1.36 0 2.44 0.72 2.44 2.28 s-1.08 2.28 -2.44 2.28 l-10 0 z" style="fill: rgb(255, 163, 26);"/>
  </g>
</svg>